<?xml version="1.0" encoding="UTF-8"?>
<svg width="40px" height="40px" viewBox="0 0 40 40" version="1.1" xmlns="http://www.w3.org/2000/svg" xmlns:xlink="http://www.w3.org/1999/xlink">
    <title>Group 34</title>
    <defs>
        <polygon id="path-1" points="0 0 20 0 20 20 0 20"></polygon>
        <polygon id="path-3" points="0 0 1 0 1 1 0 1"></polygon>
        <polygon id="path-5" points="0 0 1 0 1 1 0 1"></polygon>
        <polygon id="path-7" points="0 0 1 0 1 1 0 1"></polygon>
        <polygon id="path-9" points="0 0 1 0 1 1 0 1"></polygon>
        <polygon id="path-11" points="0 0 1 0 1 1 0 1"></polygon>
        <polygon id="path-13" points="0 0 1 0 1 1 0 1"></polygon>
        <polygon id="path-15" points="0 0 1 0 1 1 0 1"></polygon>
        <path d="M1.5,3 C2.3284275,3 3,2.3284275 3,1.5 C3,0.6715725 2.3284275,0 1.5,0 C0.6715725,0 0,0.6715725 0,1.5 C0,2.3284275 0.6715725,3 1.5,3 Z" id="path-17"></path>
    </defs>
    <g id="Pictos" stroke="none" stroke-width="1" fill="none" fill-rule="evenodd">
        <g id="Group-34">
            <rect id="Bounding-Box" x="0" y="0" width="40" height="40"></rect>
            <g id="Group-3" transform="translate(10.000000, 11.000000)">
                <mask id="mask-2" fill="white">
                    <use xlink:href="#path-1"></use>
                </mask>
                <g id="Clip-2"></g>
                <polygon id="Fill-1" fill="#FFFFFF" mask="url(#mask-2)" points="-2.17391304 -2.17391304 22.173913 -2.17391304 22.173913 22.173913 -2.17391304 22.173913"></polygon>
            </g>
            <g id="Group-8" transform="translate(10.000000, 9.000000)" stroke="#4F4C4D">
                <polygon id="Stroke-4" points="0 1.76 20 1.76 20 22 0 22"></polygon>
                <line x1="0.434782609" y1="5.72" x2="19.5652174" y2="5.72" id="Stroke-5" stroke-linecap="square"></line>
                <path d="M3.47826087,3.52 L3.47826087,0 L3.47826087,3.52 Z" id="Stroke-6" stroke-linecap="square"></path>
                <path d="M16.5512696,3.52 L16.5512696,0 L16.5512696,3.52 Z" id="Stroke-7" stroke-linecap="square"></path>
            </g>
            <g id="Group-11" transform="translate(13.000000, 20.000000)">
                <mask id="mask-4" fill="white">
                    <use xlink:href="#path-3"></use>
                </mask>
                <g id="Clip-10"></g>
                <polygon id="Fill-9" fill="#4F4C4D" mask="url(#mask-4)" points="-2.5 -2.5 3.5 -2.5 3.5 3.5 -2.5 3.5"></polygon>
            </g>
            <g id="Group-14" transform="translate(17.000000, 20.000000)">
                <mask id="mask-6" fill="white">
                    <use xlink:href="#path-5"></use>
                </mask>
                <g id="Clip-13"></g>
                <polygon id="Fill-12" fill="#4F4C4D" mask="url(#mask-6)" points="-2.5 -2.5 3.5 -2.5 3.5 3.5 -2.5 3.5"></polygon>
            </g>
            <g id="Group-17" transform="translate(22.000000, 20.000000)">
                <mask id="mask-8" fill="white">
                    <use xlink:href="#path-7"></use>
                </mask>
                <g id="Clip-16"></g>
                <polygon id="Fill-15" fill="#4F4C4D" mask="url(#mask-8)" points="-2.5 -2.5 3.5 -2.5 3.5 3.5 -2.5 3.5"></polygon>
            </g>
            <g id="Group-20" transform="translate(26.000000, 20.000000)">
                <mask id="mask-10" fill="white">
                    <use xlink:href="#path-9"></use>
                </mask>
                <g id="Clip-19"></g>
                <polygon id="Fill-18" fill="#4F4C4D" mask="url(#mask-10)" points="-2.5 -2.5 3.5 -2.5 3.5 3.5 -2.5 3.5"></polygon>
            </g>
            <g id="Group-23" transform="translate(13.000000, 25.000000)">
                <mask id="mask-12" fill="white">
                    <use xlink:href="#path-11"></use>
                </mask>
                <g id="Clip-22"></g>
                <polygon id="Fill-21" fill="#4F4C4D" mask="url(#mask-12)" points="-2.5 -2.5 3.5 -2.5 3.5 3.5 -2.5 3.5"></polygon>
            </g>
            <g id="Group-26" transform="translate(17.000000, 25.000000)">
                <mask id="mask-14" fill="white">
                    <use xlink:href="#path-13"></use>
                </mask>
                <g id="Clip-25"></g>
                <polygon id="Fill-24" fill="#4F4C4D" mask="url(#mask-14)" points="-2.5 -2.5 3.5 -2.5 3.5 3.5 -2.5 3.5"></polygon>
            </g>
            <g id="Group-29" transform="translate(26.000000, 25.000000)">
                <mask id="mask-16" fill="white">
                    <use xlink:href="#path-15"></use>
                </mask>
                <g id="Clip-28"></g>
                <polygon id="Fill-27" fill="#4F4C4D" mask="url(#mask-16)" points="-2.5 -2.5 3.5 -2.5 3.5 3.5 -2.5 3.5"></polygon>
            </g>
            <g id="Group-32" transform="translate(21.000000, 24.000000)">
                <mask id="mask-18" fill="white">
                    <use xlink:href="#path-17"></use>
                </mask>
                <g id="Clip-31"></g>
                <polygon id="Fill-30" fill="#FFCC00" mask="url(#mask-18)" points="-1.875 -1.875 4.875 -1.875 4.875 4.875 -1.875 4.875"></polygon>
            </g>
            <path d="M22.5,27 C23.3284271,27 24,26.3284271 24,25.5 C24,24.6715729 23.3284271,24 22.5,24 C21.6715729,24 21,24.6715729 21,25.5 C21,26.3284271 21.6715729,27 22.5,27 Z" id="Stroke-33" stroke="#4F4C4D"></path>
        </g>
    </g>
</svg>