<?xml version="1.0" encoding="UTF-8"?>
<svg width="172px" height="48px" viewBox="0 0 172 48" version="1.1" xmlns="http://www.w3.org/2000/svg" xmlns:xlink="http://www.w3.org/1999/xlink">
    <title>04 Honeycomb Foundation/logo*/CBA/CBAlockup64</title>
    <defs>
        <linearGradient x1="20.65625%" y1="25.375%" x2="79.34375%" y2="74.609375%" id="linearGradient-1">
            <stop stop-color="#FFFF00" offset="0%"></stop>
            <stop stop-color="#FEF10C" offset="27%"></stop>
            <stop stop-color="#FDE516" offset="45%"></stop>
            <stop stop-color="#FDE113" offset="64%"></stop>
            <stop stop-color="#FED508" offset="82%"></stop>
            <stop stop-color="#FFCC00" offset="92%"></stop>
        </linearGradient>
        <linearGradient x1="32.1467939%" y1="42.3611111%" x2="55.1177879%" y2="60.4662698%" id="linearGradient-2">
            <stop stop-color="#874400" offset="10%"></stop>
            <stop stop-color="#D88A00" offset="26%"></stop>
            <stop stop-color="#E79D00" offset="37%"></stop>
            <stop stop-color="#F2B400" offset="52%"></stop>
            <stop stop-color="#FAD202" offset="70%"></stop>
            <stop stop-color="#FEDF03" offset="90%"></stop>
        </linearGradient>
    </defs>
    <g id="Navigation" stroke="none" stroke-width="1" fill="none" fill-rule="evenodd">
        <g id="xl---1200-+-Homepage-Copy-2" transform="translate(-413.000000, -56.000000)">
            <g id="04-Honeycomb-Foundation/logo*/CBA/CBAlockup64" transform="translate(413.000000, 56.000000)">
                <rect id="bounding-box" fill="#D8D8D8" opacity="0" x="0" y="0" width="180" height="48"></rect>
                <g id="CommBank">
                    <g id="Commonwealth" transform="translate(57.240000, 8.850000)" fill="#1E1E1E" fill-rule="nonzero">
                        <path d="M-6.5480954e-13,6.285 C-6.5480954e-13,2.1375 2.25,1.33226763e-15 5.34,1.33226763e-15 C7.59,1.33226763e-15 9.5475,1.2225 9.84,3.645 L7.965,3.645 C7.76117942,2.3934008 6.61622187,1.5182321 5.355,1.65 C3.3525,1.65 1.8675,3 1.8675,6.315 C1.8675,9.63 3.3675,10.98 5.355,10.98 C6.62480167,11.1146248 7.7753587,10.2252574 7.965,8.9625 L9.8775,8.9625 C9.5475,11.3775 7.5825,12.6 5.3775,12.6 C2.28,12.57 -6.5480954e-13,10.4325 -6.5480954e-13,6.285 Z" id="Path"></path>
                        <path d="M10.6575,7.965 C10.6575,5.13 12.405,3.33 14.805,3.33 C17.205,3.33 18.9675,5.13 18.9675,7.965 C18.9675,10.8 17.22,12.5925 14.805,12.5925 C12.39,12.5925 10.6575,10.7925 10.6575,7.965 Z M17.1375,7.965 C17.1375,5.82 16.185,4.785 14.805,4.785 C13.425,4.785 12.4575,5.82 12.4575,7.965 C12.4575,10.11 13.425,11.1375 14.805,11.1375 C16.185,11.1375 17.1375,10.1025 17.1375,7.965 Z" id="Shape"></path>
                        <path d="M32.82,6.5775 L32.82,12.3675 L31.0275,12.3675 L31.0275,6.855 C31.0275,5.4375 30.39,4.92 29.4,4.92 C28.26,4.92 27.345,5.8575 27.345,7.3725 L27.345,12.3675 L25.5525,12.3675 L25.5525,6.855 C25.5525,5.4375 24.915,4.92 23.925,4.92 C22.785,4.92 21.87,5.8575 21.87,7.3725 L21.87,12.3675 L20.0775,12.3675 L20.0775,3.555 L21.87,3.555 L21.87,4.905 C22.378497,3.92747859 23.3931884,3.31866378 24.495,3.33 C25.6484716,3.28446804 26.698478,3.99155325 27.09,5.0775 C27.5941745,3.97838284 28.7089459,3.28941273 29.9175,3.33 C31.5075,3.33 32.82,4.3875 32.82,6.5775 Z" id="Path"></path>
                        <path d="M47.01,6.5775 L47.01,12.3675 L45.21,12.3675 L45.21,6.855 C45.21,5.4375 44.5725,4.92 43.59,4.92 C42.45,4.92 41.535,5.8575 41.535,7.3725 L41.535,12.3675 L39.735,12.3675 L39.735,6.855 C39.735,5.4375 39.0975,4.92 38.115,4.92 C36.975,4.92 36.06,5.8575 36.06,7.3725 L36.06,12.3675 L34.26,12.3675 L34.26,3.555 L36.06,3.555 L36.06,4.905 C36.5658513,3.9249928 37.5822401,3.31515949 38.685,3.33 C39.8364454,3.28537919 40.883805,3.99272644 41.2725,5.0775 C41.7777342,3.97579871 42.8962606,3.28633662 44.1075,3.33 C45.6825,3.33 47.01,4.3875 47.01,6.5775 Z" id="Path"></path>
                        <path d="M48.165,7.965 C48.165,5.13 49.905,3.33 52.305,3.33 C54.705,3.33 56.4675,5.13 56.4675,7.965 C56.4675,10.8 54.7275,12.5925 52.305,12.5925 C49.8825,12.5925 48.165,10.7925 48.165,7.965 Z M54.6375,7.965 C54.6375,5.82 53.6925,4.785 52.305,4.785 C50.9175,4.785 49.9575,5.82 49.9575,7.965 C49.9575,10.11 50.925,11.1375 52.305,11.1375 C53.685,11.1375 54.6375,10.1025 54.6375,7.965 Z" id="Shape"></path>
                        <path d="M65.1825,6.5775 L65.1825,12.3675 L63.3825,12.3675 L63.3825,7.0275 C63.3825,5.49 62.6325,4.92 61.62,4.92 C60.6075,4.92 59.415,5.67 59.415,7.425 L59.415,12.3675 L57.615,12.3675 L57.615,3.555 L59.415,3.555 L59.415,4.9575 C59.9463408,3.92297302 61.0277316,3.28875192 62.19,3.33 C63.8025,3.33 65.1825,4.3875 65.1825,6.5775 Z" id="Path"></path>
                        <polygon id="Path" points="76.2975 3.555 78.06 3.555 75.81 12.3675 73.635 12.3675 71.9775 5.685 70.26 12.3675 68.0475 12.3675 65.7975 3.555 67.6125 3.555 69.2925 10.74 71.07 3.555 72.9 3.555 74.6475 10.605"></polygon>
                        <path d="M86.34,8.4 L80.1375,8.4 C80.2725,10.1775 81.1725,11.13 82.71,11.13 C83.5113468,11.2223487 84.275669,10.7680528 84.5775,10.02 L86.34,10.02 C85.8375,11.7 84.42,12.5625 82.59,12.5625 C80.085,12.5625 78.375,10.7625 78.375,7.935 C78.375,5.1075 80.1,3.3 82.62,3.3 C84.87,3.3 86.37,4.755 86.37,7.515 C86.3925,7.8225 86.37,8.115 86.34,8.4 Z M80.175,6.9975 L84.675,6.9975 C84.6075,5.3025 83.67,4.7475 82.5675,4.7475 C81.315,4.7625 80.415,5.5125 80.175,7.0275 L80.175,6.9975 Z" id="Shape"></path>
                        <path d="M95.6775,11.0175 L95.6775,12.3975 C95.4047726,12.4617125 95.1251495,12.491942 94.845,12.4875 C94.0516306,12.5734508 93.3112789,12.0767191 93.09,11.31 C92.425916,12.1641349 91.3882699,12.642403 90.3075,12.5925 C88.335,12.5925 87.2325,11.3325 87.2325,9.7425 C87.2325,8.1525 88.56,7.1325 90.2325,7.065 L92.9775,6.96 L92.9775,6.525 C93.0323022,6.05287209 92.8699256,5.58137874 92.5360334,5.24311246 C92.2021413,4.90484618 91.7328012,4.73634701 91.26,4.785 C90.0525,4.785 89.535,5.3025 89.34,6.06 L87.4275,6.06 C87.7875,4.2825 89.1825,3.33 91.275,3.33 C93.4875,3.33 94.7325,4.5225 94.7325,6.405 L94.7325,10.275 C94.7325,10.7925 95.01,11.025 95.4225,11.025 C95.5075588,11.0297458 95.5928672,11.0272367 95.6775,11.0175 L95.6775,11.0175 Z M92.985,9.255 L92.985,8.2725 L90.5475,8.3925 C89.5425,8.445 89.01,8.8575 89.01,9.6525 C89.01,10.5675 89.595,11.1525 90.7575,11.1525 C91.92,11.1525 92.985,10.485 92.985,9.255 L92.985,9.255 Z" id="Shape"></path>
                        <polygon id="Path" points="96.705 12.3675 96.705 0.2025 98.4975 0.2025 98.4975 12.3675"></polygon>
                        <path d="M101.01,10.1175 L101.01,5.0625 L99.51,5.0625 L99.51,3.5625 L101.01,3.5625 L101.01,1.5375 L102.7725,0.4275 L102.7725,3.555 L104.7225,3.555 L104.7225,5.055 L102.7725,5.055 L102.7725,9.645 C102.7725,10.53 103.1475,10.8525 103.86,10.8525 C104.194217,10.8528298 104.527878,10.8252338 104.8575,10.77 L104.8575,12.27 C104.385439,12.4238622 103.891479,12.499856 103.395,12.495 C102.747115,12.5555784 102.105843,12.3249084 101.644997,11.8655114 C101.184151,11.4061144 100.951463,10.7655726 101.01,10.1175 L101.01,10.1175 Z" id="Path"></path>
                        <path d="M105.945,12.3675 L105.945,0.2025 L107.76,0.2025 L107.76,4.9575 C108.419716,3.90361354 109.59255,3.28286975 110.835,3.33 C112.44,3.33 113.835,4.3875 113.835,6.5775 L113.835,12.3675 L112.035,12.3675 L112.035,7.0275 C112.089098,6.46433858 111.893048,5.90584588 111.498818,5.50006294 C111.104588,5.09428 110.551989,4.88218556 109.9875,4.92 C108.8775,4.92 107.7375,5.67 107.7375,7.425 L107.7375,12.3675 L105.945,12.3675 Z" id="Path"></path>
                    </g>
                    <g id="Bank" transform="translate(57.937500, 25.245000)" fill="#1E1E1E" fill-rule="nonzero">
                        <path d="M9.1425,8.6925 C9.1425,10.9425 7.6425,12.165 5.0625,12.165 L1.82520665e-13,12.165 L1.82520665e-13,1.33226763e-15 L5.25,1.33226763e-15 C7.425,1.33226763e-15 8.8125,1.1925 8.8125,3.15 C8.8653791,4.30485609 8.2043207,5.37386495 7.1475,5.8425 C8.36966388,6.2466804 9.18105773,7.40581447 9.1425,8.6925 L9.1425,8.6925 Z M1.8,1.59 L1.8,5.1825 L4.89,5.1825 C6.24,5.1825 6.9825,4.5825 6.9825,3.39 C6.9825,2.1975 6.2325,1.59 4.89,1.59 L1.8,1.59 Z M5.13,10.59 C6.5475,10.59 7.3275,9.93 7.3275,8.6925 C7.3275,7.455 6.5775,6.7875 5.13,6.7875 L1.8,6.7875 L1.8,10.59 L5.13,10.59 Z" id="Shape"></path>
                        <path d="M18.3825,10.815 L18.3825,12.195 C18.1097726,12.2592125 17.8301495,12.289442 17.55,12.285 C16.7547361,12.3716543 16.0118755,11.8753602 15.7875,11.1075 C15.1258627,11.9647117 14.08652,12.4437619 13.005,12.39 C12.2082752,12.4674788 11.4165272,12.1999437 10.8300915,11.6550891 C10.2436558,11.1102344 9.91871912,10.3402629 9.9375,9.54 C9.9375,7.845 11.265,6.93 12.9375,6.8625 L15.6825,6.7575 L15.6825,6.3225 C15.7426126,5.84238515 15.5765361,5.36155478 15.2329277,5.02088325 C14.8893194,4.68021172 14.4070812,4.51826852 13.9275,4.5825 C12.7125,4.5825 12.195,5.1 12.0075,5.8575 L10.0875,5.8575 C10.455,4.08 11.85,3.1275 13.9425,3.1275 C16.1925,3.1275 17.3925,4.32 17.3925,6.2025 L17.3925,10.0725 C17.3925,10.59 17.67,10.8225 18.09,10.8225 C18.1875611,10.8260846 18.2852508,10.8235798 18.3825,10.815 Z M15.6825,9.0525 L15.6825,8.07 L13.2525,8.19 C12.2475,8.2425 11.7525,8.655 11.7525,9.45 C11.7525,10.365 12.3375,10.95 13.4925,10.95 C14.6475,10.95 15.6825,10.2825 15.6825,9.0525 L15.6825,9.0525 Z" id="Shape"></path>
                        <path d="M26.8725,6.375 L26.8725,12.165 L25.08,12.165 L25.08,6.825 C25.08,5.325 24.33,4.7175 23.3175,4.7175 C22.305,4.7175 21.0675,5.4675 21.0675,7.2225 L21.0675,12.165 L19.3125,12.165 L19.3125,3.3525 L21.105,3.3525 L21.105,4.755 C21.6375028,3.71795212 22.7225651,3.08329307 23.8875,3.1275 C25.4925,3.1275 26.8725,4.185 26.8725,6.375 Z" id="Path"></path>
                        <polygon id="Path" points="35.8125 3.3525 32.0625 7.62 35.8125 12.165 33.5625 12.165 30.09 7.8825 30.09 12.165 28.29 12.165 28.29 1.33226763e-15 30.09 1.33226763e-15 30.09 7.5 33.6675 3.3375"></polygon>
                    </g>
                    <g id="04-Honeycomb-Foundation/logo*/CBA/CBAdiamond64">
                        <rect id="bounding-box" fill="#D8D8D8" opacity="0" x="0" y="0" width="48" height="48"></rect>
                        <g id="CommBank-Logo" fill-rule="nonzero">
                            <polyline id="Path" fill="url(#linearGradient-1)" points="24 0 48 24 24 48 0 24 24 0"></polyline>
                            <polygon id="Path" fill="url(#linearGradient-2)" points="33.1125 26.43 24 48 24 48 48 24 41.7675 17.76"></polygon>
                        </g>
                    </g>
                </g>
            </g>
        </g>
    </g>
</svg>