<?xml version="1.0" encoding="UTF-8"?>
<svg width="48px" height="48px" viewBox="0 0 48 48" version="1.1" xmlns="http://www.w3.org/2000/svg" xmlns:xlink="http://www.w3.org/1999/xlink">
    <!-- Generator: Sketch 51.3 (57544) - http://www.bohemiancoding.com/sketch -->
    <title>pictogram/Small./Shares48</title>
    <desc>Created with Sketch.</desc>
    <defs></defs>
    <g id="pictogram/Small./Shares48" stroke="none" stroke-width="1" fill="none" fill-rule="evenodd">
        <rect id="Bounding-Box" x="0" y="0" width="48" height="48"></rect>
        <g transform="translate(2.000000, 9.000000)" id="pictogramShares48" stroke="#4F4C4D" stroke-width="1.5">
            <g>
                <polyline id="Line" stroke-linecap="square" points="4 25.5 16 11.2 28 20.2 40 4.5"></polyline>
                <path d="M36.2,4.5 C36.2,2.4 37.9,0.7 40,0.7 C42.1,0.7 43.8,2.4 43.8,4.5 C43.8,6.6 42.1,8.3 40,8.3 C37.9,8.3 36.2,6.6 36.2,4.5 Z" id="Point-4" fill="#FFCC00" fill-rule="nonzero"></path>
                <path d="M24.2,20.2 C24.2,18.1 25.9,16.4 28,16.4 C30.1,16.4 31.8,18.1 31.8,20.2 C31.8,22.3 30.1,24 28,24 C25.9,24 24.2,22.3 24.2,20.2 Z" id="Point-3" fill="#FFFFFF" fill-rule="nonzero"></path>
                <path d="M12.2,11.2 C12.2,9.1 13.9,7.4 16,7.4 C18.1,7.4 19.8,9.1 19.8,11.2 C19.8,13.3 18.1,15 16,15 C13.9,15 12.2,13.3 12.2,11.2 Z" id="Point-2" fill="#FFFFFF" fill-rule="nonzero"></path>
                <path d="M4,29.2 C1.9,29.2 0.2,27.5 0.2,25.4 C0.2,23.3 1.9,21.6 4,21.6 C6.1,21.6 7.8,23.3 7.8,25.4 C7.8,27.5 6.1,29.2 4,29.2" id="Point-1" fill="#FFFFFF" fill-rule="nonzero"></path>
            </g>
        </g>
    </g>
</svg>